<svg width="400" height="400" viewBox="0 0 400 400" fill="none" xmlns="http://www.w3.org/2000/svg">
<g clip-path="url(#clip0_7_51)">
<path d="M89.5163 93.2126C76.3928 97.8941 65.7251 110.711 62.6553 125.292C59.125 142.1 63.7297 160.212 74.0904 170.649C81.151 177.71 88.9023 180.933 98.7258 180.933C116.224 180.933 130.806 168.654 135.564 149.851C137.099 143.788 137.099 129.974 135.487 123.834C132.264 111.094 123.822 100.043 113.461 94.9778C108.933 92.7522 107.398 92.3684 100.798 92.1382C95.042 91.908 92.5094 92.1382 89.5163 93.2126Z" fill="black"/>
<path d="M295.349 92.7522C286.139 94.901 276.623 103.343 271.788 113.627C270.099 117.157 268.257 122.299 267.567 124.985C266.108 131.355 266.108 144.556 267.567 150.925C271.941 169.344 286.216 180.933 304.558 180.933C325.279 180.933 339.938 164.586 341.396 139.874C342.547 119.229 330.114 98.5848 313.461 93.4429C308.165 91.8312 300.567 91.5242 295.349 92.7522Z" fill="black"/>
<path d="M168.564 187.38C158.971 191.831 156.515 201.578 162.041 212.859C165.188 219.229 169.025 223.374 179.769 232.046L188.902 239.337V244.939C188.902 255.377 185.218 263.819 177.083 271.954C165.111 283.926 153.138 285.921 138.327 278.477C132.187 275.331 129.424 271.8 127.889 265.047C126.431 258.677 125.28 256.605 121.903 254.609C117.068 251.616 110.545 253.304 106.707 258.677C101.182 266.275 104.251 278.554 114.382 289.298C127.812 303.65 146.462 309.559 165.725 305.568C177.39 303.189 186.83 297.894 195.809 288.838C198.495 286.075 201.105 283.773 201.488 283.773C201.872 283.773 205.326 286.766 209.163 290.526C217.144 298.201 223.898 302.192 233.108 304.494C244.773 307.487 262.655 305.722 273.322 300.58C279.769 297.433 291.051 286.305 294.658 279.398C297.881 273.182 299.109 267.502 297.958 263.281C296.883 259.521 294.044 255.837 290.744 254.149C284.297 250.772 275.164 256.835 274.55 264.893C274.243 269.344 271.404 273.719 266.722 276.942C260.583 281.163 256.131 282.545 248.38 282.545C242.087 282.621 241.012 282.391 236.254 280.012C222.747 273.489 213.461 259.367 213.461 245.4C213.461 239.106 214.075 238.262 222.517 232.046C235.87 222.222 242.317 213.473 243.161 203.88C243.852 196.513 240.552 190.296 234.105 186.996C231.342 185.615 229.347 185.538 201.795 185.538C172.555 185.538 172.402 185.538 168.564 187.38Z" fill="black"/>
<path d="M-92 200.34L44.8843 222.885" stroke="black" stroke-width="15" stroke-linecap="round" stroke-linejoin="round"/>
<path d="M-85.5583 286.127L51.8394 266.957" stroke="black" stroke-width="15" stroke-linecap="round" stroke-linejoin="round"/>
<path d="M356.04 222.287L493 200.204" stroke="black" stroke-width="15" stroke-linecap="round" stroke-linejoin="round"/>
<path d="M355.797 264.756L492.575 287.938" stroke="black" stroke-width="15" stroke-linecap="round" stroke-linejoin="round"/>
</g>
<defs>
<clipPath id="clip0_7_51">
<rect width="400" height="400" fill="white"/>
</clipPath>
</defs>
</svg>
