<svg width="400" height="400" viewBox="0 0 400 400" fill="none" xmlns="http://www.w3.org/2000/svg">
<path d="M130.715 159.478C122.565 162.385 115.941 170.344 114.035 179.398C111.843 189.835 114.702 201.082 121.136 207.563C125.52 211.948 130.333 213.949 136.433 213.949C147.299 213.949 156.354 206.324 159.308 194.648C160.262 190.884 160.262 182.305 159.261 178.493C157.259 170.582 152.017 163.72 145.583 160.574C142.772 159.192 141.819 158.954 137.72 158.811C134.146 158.668 132.573 158.811 130.715 159.478Z" fill="black"/>
<path d="M258.529 159.192C252.81 160.527 246.901 165.769 243.898 172.155C242.85 174.347 241.706 177.54 241.277 179.208C240.372 183.163 240.372 191.36 241.277 195.316C243.994 206.753 252.858 213.949 264.248 213.949C277.115 213.949 286.217 203.798 287.123 188.453C287.837 175.634 280.117 162.814 269.776 159.621C266.487 158.62 261.769 158.43 258.529 159.192Z" fill="black"/>
<path d="M179.801 217.952C173.844 220.716 172.319 226.769 175.75 233.774C177.704 237.73 180.086 240.303 186.758 245.688L192.429 250.216V253.695C192.429 260.176 190.142 265.418 185.09 270.47C177.656 277.904 170.222 279.143 161.024 274.52C157.211 272.566 155.496 270.374 154.543 266.18C153.637 262.225 152.922 260.938 150.826 259.699C147.823 257.841 143.772 258.889 141.39 262.225C137.958 266.943 139.865 274.568 146.155 281.24C154.495 290.152 166.076 293.821 178.037 291.343C185.281 289.866 191.143 286.577 196.719 280.954C198.386 279.238 200.007 277.809 200.245 277.809C200.483 277.809 202.628 279.667 205.011 282.002C209.967 286.768 214.161 289.246 219.879 290.676C227.123 292.534 238.227 291.438 244.851 288.245C248.854 286.291 255.86 279.381 258.1 275.092C260.101 271.232 260.864 267.705 260.149 265.084C259.482 262.749 257.719 260.462 255.669 259.413C251.666 257.316 245.995 261.081 245.614 266.085C245.423 268.849 243.66 271.566 240.753 273.567C236.94 276.188 234.176 277.046 229.363 277.046C225.455 277.094 224.788 276.951 221.833 275.473C213.446 271.423 207.679 262.654 207.679 253.98C207.679 250.073 208.061 249.548 213.303 245.688C221.595 239.588 225.598 234.155 226.122 228.198C226.551 223.623 224.502 219.763 220.499 217.714C218.783 216.856 217.544 216.809 200.436 216.809C182.279 216.809 182.183 216.809 179.801 217.952Z" fill="black"/>
<path d="M18 226L103 240" stroke="black" stroke-width="15" stroke-linecap="round" stroke-linejoin="round"/>
<path d="M22 279.271L107.319 267.367" stroke="black" stroke-width="15" stroke-linecap="round" stroke-linejoin="round"/>
<path d="M296.216 239.628L381.263 225.916" stroke="black" stroke-width="15" stroke-linecap="round" stroke-linejoin="round"/>
<path d="M296.065 266L380.999 280.395" stroke="black" stroke-width="15" stroke-linecap="round" stroke-linejoin="round"/>
</svg>
